<?xml version="1.0" encoding="UTF-8"?>
<svg width="96px" height="34px" viewBox="0 0 96 34" version="1.1" xmlns="http://www.w3.org/2000/svg" xmlns:xlink="http://www.w3.org/1999/xlink">
    <title>+5g-大</title>
    <g id="+5g-大" stroke="none" stroke-width="1" fill="none" fill-rule="evenodd">
        <rect fill="#FFFFFF" x="0" y="0" width="96" height="34"></rect>
        <g id="编组-10备份-12">
            <rect id="矩形备份-22" fill="#FFFFFF" x="0" y="0" width="96" height="34"></rect>
            <g id="编组备份" transform="translate(9.387100, 5.846100)" fill="#000000">
                <polygon id="Fill-37" points="6.688 4.3483 6.688 0.0003 4.311 0.0003 4.311 4.3483 0 4.3483 0 6.6133 4.311 6.6133 4.311 10.9613 6.688 10.9613 6.688 6.6133 10.999 6.6133 10.999 4.3483"></polygon>
                <path d="M51.6567,0 L19.7247,0 C18.1397,0 16.8537,1.284 16.8537,2.869 L16.8537,20.087 C16.8537,21.671 18.1397,22.957 19.7247,22.957 L54.5267,22.957 L54.5267,2.869 C54.5267,1.284 53.2427,0 51.6567,0 L51.6567,0 Z M51.6567,1.434 C52.4487,1.434 53.0927,2.078 53.0927,2.869 L53.0927,21.523 L19.7247,21.523 C18.9327,21.523 18.2887,20.879 18.2887,20.087 L18.2887,2.869 C18.2887,2.078 18.9327,1.434 19.7247,1.434 L51.6567,1.434 Z" id="Fill-39"></path>
                <path d="M22.6375,5.7987 L34.5425,5.7987 L34.5425,7.8177 L24.9105,7.8177 L24.9105,9.9157 C24.9105,10.2337 25.1645,10.4877 25.4825,10.4877 L32.6825,10.4877 C33.9385,10.4877 34.9555,11.5047 34.9555,12.7607 L34.9555,14.8747 C34.9555,16.1297 33.9385,17.1477 32.6825,17.1477 L22.7965,17.1477 L22.7965,15.1287 L32.1105,15.1287 C32.4125,15.1287 32.6675,14.8747 32.6675,14.5567 L32.6675,13.0787 C32.6675,12.7607 32.4125,12.5067 32.1105,12.5067 L24.9105,12.5067 C23.6545,12.5067 22.6375,11.4887 22.6375,10.2337 L22.6375,5.7987 Z" id="Fill-41"></path>
                <path d="M36.5134,8.0716 C36.5134,6.8156 37.5304,5.7986 38.7864,5.7986 L48.3554,5.7986 L48.3554,7.8176 L39.3584,7.8176 C39.0404,7.8176 38.7864,8.0716 38.7864,8.3896 L38.7864,14.5566 C38.7864,14.8746 39.0404,15.1286 39.3584,15.1286 L46.5434,15.1286 L46.5434,13.0626 C46.5434,12.7606 46.2884,12.5066 45.9864,12.5066 L41.9654,12.5066 L41.9654,10.4876 L46.5594,10.4876 C47.8144,10.4876 48.8314,11.5046 48.8314,12.7446 L48.8314,17.1476 L38.7864,17.1476 C37.5304,17.1476 36.5134,16.1306 36.5134,14.8746 L36.5134,8.0716 Z" id="Fill-43"></path>
            </g>
        </g>
    </g>
</svg>