<?xml version="1.0" encoding="UTF-8"?>
<svg width="91px" height="28px" viewBox="0 0 91 28" version="1.1" xmlns="http://www.w3.org/2000/svg" xmlns:xlink="http://www.w3.org/1999/xlink">
    <title>+5g-小</title>
    <g id="+5g-小" stroke="none" stroke-width="1" fill="none" fill-rule="evenodd">
        <rect fill="#FFFFFF" x="0" y="0" width="91" height="28"></rect>
        <g id="编组-10备份-12">
            <rect id="矩形备份-22" x="0" y="0" width="91" height="28"></rect>
            <g id="编组备份" transform="translate(7.844015, 4.814435)" fill="#000000">
                <polygon id="Fill-37" points="5.58860274 3.58095294 5.58860274 0.000247058823 3.60234247 0.000247058823 3.60234247 3.58095294 0 3.58095294 0 5.44624706 3.60234247 5.44624706 3.60234247 9.02695294 5.58860274 9.02695294 5.58860274 5.44624706 9.19094521 5.44624706 9.19094521 3.58095294"></polygon>
                <path d="M43.1651877,0 L16.4822836,0 C15.1578315,0 14.0832288,1.05741176 14.0832288,2.36270588 L14.0832288,16.5422353 C14.0832288,17.8467059 15.1578315,18.9057647 16.4822836,18.9057647 L45.5634068,18.9057647 L45.5634068,2.36270588 C45.5634068,1.05741176 44.4904753,0 43.1651877,0 L43.1651877,0 Z M43.1651877,1.18094118 C43.8269959,1.18094118 44.3651329,1.71129412 44.3651329,2.36270588 L44.3651329,17.7248235 L16.4822836,17.7248235 C15.8204753,17.7248235 15.2823384,17.1944706 15.2823384,16.5422353 L15.2823384,2.36270588 C15.2823384,1.71129412 15.8204753,1.18094118 16.4822836,1.18094118 L43.1651877,1.18094118 Z" id="Fill-39"></path>
                <path d="M18.9162671,4.7754 L28.8642808,4.7754 L28.8642808,6.43810588 L20.8156233,6.43810588 L20.8156233,8.16587059 C20.8156233,8.42775294 21.0278699,8.63692941 21.2935959,8.63692941 L27.3100342,8.63692941 C28.3595685,8.63692941 29.2093904,9.47445882 29.2093904,10.5088118 L29.2093904,12.2497529 C29.2093904,13.2832824 28.3595685,14.1216353 27.3100342,14.1216353 L19.0491301,14.1216353 L19.0491301,12.4589294 L26.8320616,12.4589294 C27.0844178,12.4589294 27.2975,12.2497529 27.2975,11.9878706 L27.2975,10.7706941 C27.2975,10.5088118 27.0844178,10.2996353 26.8320616,10.2996353 L20.8156233,10.2996353 C19.766089,10.2996353 18.9162671,9.46128235 18.9162671,8.42775294 L18.9162671,4.7754 Z" id="Fill-41"></path>
                <path d="M30.5111973,6.6472 C30.5111973,5.61284706 31.3610192,4.77531765 32.4105534,4.77531765 L40.4065671,4.77531765 L40.4065671,6.43802353 L32.888526,6.43802353 C32.6228,6.43802353 32.4105534,6.6472 32.4105534,6.90908235 L32.4105534,11.9877882 C32.4105534,12.2496706 32.6228,12.4588471 32.888526,12.4588471 L38.8924301,12.4588471 L38.8924301,10.7574353 C38.8924301,10.5087294 38.6793479,10.2995529 38.4269918,10.2995529 L35.0669781,10.2995529 L35.0669781,8.63684706 L38.9058,8.63684706 C39.9544986,8.63684706 40.8043205,9.47437647 40.8043205,10.4955529 L40.8043205,14.1215529 L32.4105534,14.1215529 C31.3610192,14.1215529 30.5111973,13.2840235 30.5111973,12.2496706 L30.5111973,6.6472 Z" id="Fill-43"></path>
            </g>
        </g>
    </g>
</svg>