<?xml version="1.0" encoding="UTF-8"?>
<svg width="96px" height="34px" viewBox="0 0 96 34" version="1.1" xmlns="http://www.w3.org/2000/svg" xmlns:xlink="http://www.w3.org/1999/xlink">
    <title>5g-大</title>
    <defs>
        <polygon id="path-1" points="0 0 37.5957447 0 37.5957447 23.0714286 0 23.0714286"></polygon>
    </defs>
    <g id="5g-大" stroke="none" stroke-width="1" fill="none" fill-rule="evenodd">
        <rect fill="#FFFFFF" x="0" y="0" width="96" height="34"></rect>
        <g id="编组-10备份-12">
            <rect id="矩形备份-22" x="0" y="0" width="96" height="34"></rect>
            <g id="编组备份" transform="translate(9.702128, 6.071429)">
                <g id="编组">
                    <mask id="mask-2" fill="white">
                        <use xlink:href="#path-1"></use>
                    </mask>
                    <g id="Clip-10"></g>
                    <path d="M34.7313212,-0.000100494508 L2.86492238,-0.000100494508 C1.28327766,-0.000100494508 0,1.29024898 0,2.88308693 L0,20.1872362 C0,21.7790692 1.28327766,23.0714286 2.86492238,23.0714286 L37.5962436,23.0714286 L37.5962436,2.88308693 C37.5962436,1.29024898 36.3139638,-0.000100494508 34.7313212,-0.000100494508 L34.7313212,-0.000100494508 Z M34.7313212,1.44199569 C35.5216447,1.44199569 36.1642814,2.08817537 36.1642814,2.88308693 L36.1642814,21.6303373 L2.86492238,21.6303373 C2.07459896,21.6303373 1.43196225,20.9831527 1.43196225,20.1872362 L1.43196225,2.88308693 C1.43196225,2.08817537 2.07459896,1.44199569 2.86492238,1.44199569 L34.7313212,1.44199569 Z" id="Fill-9" fill="#000000" mask="url(#mask-2)"></path>
                </g>
                <path d="M5.77195542,5.82747551 L17.6527516,5.82747551 L17.6527516,7.85645962 L8.0401437,7.85645962 L8.0401437,9.96483439 C8.0401437,10.2844069 8.29360601,10.539663 8.61093283,10.539663 L15.796689,10.539663 C17.0500302,10.539663 18.0648773,11.5626971 18.0648773,12.8239031 L18.0648773,14.948357 C18.0648773,16.210568 17.0500302,17.2325972 15.796689,17.2325972 L5.93061883,17.2325972 L5.93061883,15.204618 L15.2258999,15.204618 C15.5272606,15.204618 15.7807229,14.948357 15.7807229,14.6287845 L15.7807229,13.1434757 C15.7807229,12.8239031 15.5272606,12.5686471 15.2258999,12.5686471 L8.0401437,12.5686471 C6.78680253,12.5686471 5.77195542,11.5466179 5.77195542,10.2844069 L5.77195542,5.82747551 Z" id="Fill-11" fill="#000000"></path>
                <path d="M19.6192798,8.11181616 C19.6192798,6.84960515 20.6341269,5.827576 21.8874681,5.827576 L31.4362115,5.827576 L31.4362115,7.85656011 L22.4582572,7.85656011 C22.1409304,7.85656011 21.8874681,8.11181616 21.8874681,8.4313887 L21.8874681,14.628885 C21.8874681,14.9484575 22.1409304,15.2047185 22.4582572,15.2047185 L29.6280473,15.2047185 L29.6280473,13.127497 C29.6280473,12.8240036 29.374585,12.5687476 29.0732243,12.5687476 L25.0597385,12.5687476 L25.0597385,10.5397635 L29.6440134,10.5397635 C30.8973546,10.5397635 31.9122017,11.5617926 31.9122017,12.8079245 L31.9122017,17.2326977 L21.8874681,17.2326977 C20.6341269,17.2326977 19.6192798,16.2106685 19.6192798,14.9484575 L19.6192798,8.11181616 Z" id="Fill-13" fill="#000000"></path>
            </g>
        </g>
    </g>
</svg>