<?xml version="1.0" encoding="UTF-8"?>
<svg width="91px" height="28px" viewBox="0 0 91 28" version="1.1" xmlns="http://www.w3.org/2000/svg" xmlns:xlink="http://www.w3.org/1999/xlink">
    <title>5g-小</title>
    <defs>
        <polygon id="path-1" points="0 0 31 0 31 19 0 19"></polygon>
    </defs>
    <g id="5g-小" stroke="none" stroke-width="1" fill="none" fill-rule="evenodd">
        <rect fill="#FFFFFF" x="0" y="0" width="91" height="28"></rect>
        <g id="编组-10备份-12">
            <rect id="矩形备份-22" x="0" y="0" width="91" height="28"></rect>
            <g id="编组备份" transform="translate(8.000000, 5.000000)">
                <g id="编组">
                    <mask id="mask-2" fill="white">
                        <use xlink:href="#path-1"></use>
                    </mask>
                    <g id="Clip-10"></g>
                    <path d="M28.638107,-8.27601828e-05 L2.36230442,-8.27601828e-05 C1.05814123,-8.27601828e-05 0,1.06255799 0,2.37430688 L0,16.6247828 C0,17.935704 1.05814123,19 2.36230442,19 L31.0004114,19 L31.0004114,2.37430688 C31.0004114,1.06255799 29.943093,-8.27601828e-05 28.638107,-8.27601828e-05 L28.638107,-8.27601828e-05 Z M28.638107,1.18752586 C29.2897772,1.18752586 29.8196706,1.71967384 29.8196706,2.37430688 L29.8196706,17.813219 L2.36230442,17.813219 C1.71063423,17.813219 1.1807408,17.2802434 1.1807408,16.6247828 L1.1807408,2.37430688 C1.1807408,1.71967384 1.71063423,1.18752586 2.36230442,1.18752586 L28.638107,1.18752586 Z" id="Fill-9" fill="#000000" mask="url(#mask-2)"></path>
                </g>
                <path d="M4.75933166,4.79909748 L14.5557776,4.79909748 L14.5557776,6.47002557 L6.62959218,6.47002557 L6.62959218,8.2063342 C6.62959218,8.46951158 6.83858741,8.67972245 7.10024286,8.67972245 L13.0253401,8.67972245 C14.0587968,8.67972245 14.8956006,9.52222111 14.8956006,10.5608614 L14.8956006,12.3104117 C14.8956006,13.3498796 14.0587968,14.1915506 13.0253401,14.1915506 L4.89015939,14.1915506 L4.89015939,12.5214501 L12.5546894,12.5214501 C12.8031798,12.5214501 13.012175,12.3104117 13.012175,12.0472343 L13.012175,10.8240388 C13.012175,10.5608614 12.8031798,10.3506505 12.5546894,10.3506505 L6.62959218,10.3506505 C5.59613542,10.3506505 4.75933166,9.50897948 4.75933166,8.46951158 L4.75933166,4.79909748 Z" id="Fill-11" fill="#000000"></path>
                <path d="M16.1773009,6.68031919 C16.1773009,5.6408513 17.0141047,4.79918024 18.0475614,4.79918024 L25.9210866,4.79918024 L25.9210866,6.47010833 L18.5182121,6.47010833 C18.2565566,6.47010833 18.0475614,6.68031919 18.0475614,6.94349657 L18.0475614,12.047317 C18.0475614,12.3104944 18.2565566,12.5215329 18.5182121,12.5215329 L24.4301443,12.5215329 L24.4301443,10.8108799 C24.4301443,10.5609442 24.221149,10.3507333 23.9726586,10.3507333 L20.6632931,10.3507333 L20.6632931,8.67980521 L24.4433093,8.67980521 C25.4767661,8.67980521 26.3135698,9.52147627 26.3135698,10.5477025 L26.3135698,14.1916334 L18.0475614,14.1916334 C17.0141047,14.1916334 16.1773009,13.3499623 16.1773009,12.3104944 L16.1773009,6.68031919 Z" id="Fill-13" fill="#000000"></path>
            </g>
        </g>
    </g>
</svg>