<?xml version="1.0" encoding="UTF-8"?>
<svg width="540px" height="113px" viewBox="0 0 540 113" version="1.1" xmlns="http://www.w3.org/2000/svg" xmlns:xlink="http://www.w3.org/1999/xlink">
    <title>撒擦</title>
    <g id="页面-1" stroke="none" stroke-width="1" fill="none" fill-rule="evenodd">
        <g id="撒擦">
            <path d="M208.988015,112.98068 L222.738015,112.98068 L147.738015,51.45018 C147.738015,51.45018 130.158015,65.09018 118.788015,73.54018 C108.185015,81.43988 97.1403152,88.72848 85.7076152,95.37018 C73.1976152,102.76068 59.7676152,106.66068 52.0176152,108.54068 C45.9971152,109.95068 39.8956152,110.98868 33.7476152,111.65068 C28.6376152,112.15068 25.8876152,112.44068 21.8176152,112.57068 C16.5776152,112.85068 -1.03241683,112.99068 0.0475831714,112.99068 L33.2676152,112.99068 L208.988015,112.98068 Z" id="路径" fill-opacity="0.06" fill="#D9D9D9" fill-rule="nonzero"></path>
            <path d="M331.017015,0 L395.277015,0 L175.527015,72.99998 L148.527015,50.84998 C148.527015,50.84998 154.087015,46.53998 158.027015,43.53998 C168.497015,35.53998 185.527015,24.04998 185.527015,24.04998 C185.527015,24.04998 203.027015,12.04998 222.527015,6.05 C242.027015,0.050001 267.527015,0.05 267.527015,0.05 L331.017015,0 Z" id="路径" fill-opacity="0.09" fill="#D9D9D9" fill-rule="nonzero"></path>
            <polygon id="路径" fill-opacity="0.05" fill="#D9D9D9" fill-rule="nonzero" points="402.508015 112.98968 387.598015 112.98968 423.348015 0 539.998015 0 539.998015 35.31998 434.308015 112.98968"></polygon>
            <path d="M539.998015,0 L539.998015,36.53998 L435.998015,112.96968 L386.558015,112.96968 L422.348015,0 L539.998015,0 Z M423.998015,0 L423.388015,0 L387.598015,112.99968 L434.268015,112.99968 L539.998015,35.31998 L539.998015,0 L423.998015,0 Z" id="形状" fill="#FFFFFF" opacity="0.3"></path>
            <polygon id="路径" fill="#FFFFFF" opacity="0.3" points="398.278015 0.009766 176.458015 73.85978 175.458015 72.99978 395.278015 0.009766"></polygon>
            <polygon id="路径" fill="#FFFFFF" opacity="0.3" points="222.768015 112.99968 147.718015 51.47008 148.508015 50.85008 224.308015 112.99968"></polygon>
            <polygon id="路径" fill-opacity="0.02" fill="#D9D9D9" fill-rule="nonzero" points="422.358015 0.009766 398.278015 0.009766 176.558015 73.83978 224.318015 112.98968 386.568015 112.98968"></polygon>
        </g>
    </g>
</svg>