<svg width="540" height="113" viewBox="0 0 540 113" fill="none" xmlns="http://www.w3.org/2000/svg">
<g id="&#233;&#187;&#145;&#229;&#186;&#149;&#230;&#151;&#129;&#232;&#189;&#180;">
<path id="Fill 4&#229;&#164;&#135;&#228;&#187;&#189;" fill-rule="evenodd" clip-rule="evenodd" d="M279.687 0L277.01 0.0056948L268.998 0.0797272L261.028 0.29613L253.116 0.708053L247.949 1.11618L240.368 1.98369L233.59 3.11316L227.395 4.51598L221.287 6.30035L214.865 8.59345L207.993 11.4674L202.937 13.8194L197.196 16.8035L190.827 20.5468L186.434 23.3316L177.345 29.4516L168.424 35.8165L155.614 45.3838L149.084 50.3876L144.823 53.6773L128.023 66.6311L125.237 68.7495L113.996 77.0753L104.223 83.9167L102.134 85.3214L94.1179 90.4638L86.7797 94.7596L79.8616 98.3966L76.4906 100.012L69.6236 102.975L62.8229 105.483L56.1092 107.541L49.2934 109.213L42.0327 110.584L34.2761 111.641L30.0382 112.066L21.3675 112.639L11.2487 112.937L0 113H540V0H279.687Z" fill="#222222"/>
</g>
</svg>
