<?xml version="1.0" encoding="UTF-8"?>
<svg width="202px" height="49px" viewBox="0 0 202 49" version="1.1" xmlns="http://www.w3.org/2000/svg" xmlns:xlink="http://www.w3.org/1999/xlink">
    <title>gopro-竖屏</title>
    <g id="gopro-竖屏" stroke="none" stroke-width="1" fill="none" fill-rule="evenodd">
        <rect id="矩形" fill="#FFFFFF" x="0" y="0" width="202" height="49"></rect>
        <g id="gopro备份-2" fill-rule="nonzero">
            <polygon id="直线备份" fill-opacity="0.1" fill="#000000" points="202 0 202 49 200 49 200 0"></polygon>
            <path d="M162.56338,2 C165.59656,2 168.505509,3.19798437 170.650292,5.33041021 C172.795074,7.46283605 174,10.3550262 174,13.3707317 L174,13.3707317 L174,35.6292683 C174,38.6449738 172.795074,41.5371639 170.650292,43.6695898 C168.505509,45.8020156 165.59656,47 162.56338,47 L162.56338,47 L11.4366197,47 C5.12034906,47 0,41.90915 0,35.6292683 L0,35.6292683 L0,13.3707317 C0,7.09084999 5.12034906,2 11.4366197,2 L11.4366197,2 Z M86.9889608,6.6097561 L11.4255805,6.6097561 C7.67248055,6.61579899 4.63150615,9.6392539 4.62542825,13.3707317 L4.62542825,13.3707317 L4.62542825,35.6292683 C4.63150615,39.3607461 7.67248055,42.384201 11.4255805,42.3902439 L11.4255805,42.3902439 L86.9889608,42.3902439 L86.9889608,6.6097561 Z M112.820708,25.4219512 L100.059383,25.4219512 L100.059383,33.7304878 L112.820708,33.7304878 L112.820708,25.4219512 Z M128.176247,25.4219512 L115.414922,25.4219512 L115.414922,33.7304878 L128.176247,33.7304878 L128.176247,25.4219512 Z M143.509707,25.4219512 L130.770461,25.4219512 L130.770461,33.7304878 L143.509707,33.7304878 L143.509707,25.4219512 Z M158.876285,25.4219512 L146.11496,25.4219512 L146.11496,33.7304878 L158.854206,33.7304878 L158.876285,25.4219512 Z M67.7586601,25.3231707 L67.7586601,28.5939024 L76.0491054,28.5939024 L76.0491054,25.3780488 C76.0432082,25.3602259 76.0432082,25.3409936 76.0491054,25.3231707 L76.0491054,25.3231707 L77.4179673,25.3231707 L77.4179673,25.3231707 L77.4179673,33.1707317 L77.4179673,33.1707317 L75.9055957,33.1707317 L75.9055957,29.954878 L67.6924248,29.954878 L67.6924248,33.2365854 L67.6924248,33.2365854 L66.2352493,33.2365854 L66.2352493,25.3780488 C66.2293521,25.3602259 66.2293521,25.3409936 66.2352493,25.3231707 L66.2352493,25.3231707 L67.7586601,25.3231707 L67.7586601,25.3231707 Z M35.9602208,25.3517001 L35.9878188,25.3560976 L37.533308,25.3560976 L37.533308,31.8646341 L38.9904834,31.8646341 C39.2368303,31.8681812 39.4654596,31.7376872 39.5866007,31.5243902 L39.5866007,31.5243902 L41.1320898,28.8353659 L42.6665398,28.8353659 L44.2120289,31.5243902 C44.3294955,31.7359432 44.5540647,31.8665383 44.797107,31.8646341 L44.797107,31.8646341 L46.2542825,31.8646341 L46.2542825,25.3560976 L46.2542825,25.3560976 L47.766654,25.3560976 L47.766654,25.3560976 L47.766654,33.1817073 C47.7725512,33.1995302 47.7725512,33.2187625 47.766654,33.2366517 L47.766654,33.2366517 L44.532166,33.2366517 C44.1712366,33.2395255 43.8163182,33.144667 43.5055196,32.9621951 C43.1966568,32.7747333 42.9388727,32.5146653 42.7548534,32.204878 L42.7548534,32.204878 L41.8606776,30.6463415 L40.9665017,32.204878 C40.7871171,32.5181813 40.5283021,32.7792894 40.2158356,32.9621951 C39.905037,33.144667 39.5501185,33.2395255 39.1891892,33.2366517 L39.1891892,33.2366517 L36.0098972,33.2366517 L35.9878188,33.2146341 L35.9326228,33.2146341 C35.9267255,33.1968113 35.9267255,33.1775789 35.9326228,33.1597561 L35.9326228,33.1597561 L35.9326228,25.3560976 C35.9505489,25.3502343 35.9698927,25.3502343 35.9878188,25.3560976 Z M64.3806624,25.3012195 L64.2923487,25.3231707 L64.2923487,26.6621951 L64.2923487,26.6621951 L59.4571755,26.6621951 L59.4571755,33.1707317 C59.4630727,33.1885546 59.4630727,33.2077869 59.4571755,33.2256098 L59.4571755,33.2256098 L57.944804,33.2256098 C57.9389067,33.2077869 57.9389067,33.1885546 57.944804,33.1707317 L57.944804,33.1707317 L57.944804,26.5743902 L53.1096308,26.5743902 L53.1096308,25.3560976 C53.1037335,25.3382747 53.1037335,25.3190424 53.1096308,25.3012195 L53.1096308,25.3012195 L64.3806624,25.3012195 Z M51.1777693,25.3012195 L51.1336125,25.3231707 L51.1336125,33.1487805 L51.1336125,33.1487805 L49.676437,33.1487805 L49.676437,25.3560976 C49.6705397,25.3382747 49.6705397,25.3190424 49.676437,25.3012195 L49.676437,25.3012195 L51.1777693,25.3012195 Z M14.8587743,15.8292683 L14.8587743,22.3378049 L16.3380282,22.3378049 C16.5843751,22.3413519 16.8130043,22.2108579 16.9341454,21.997561 L16.9341454,21.997561 L18.4796346,19.3085366 L20.0140845,19.3085366 L21.5595737,21.997561 C21.6770402,22.209114 21.9016094,22.339709 22.1446517,22.3378049 L22.1446517,22.3378049 L23.6128664,22.3378049 L23.6128664,15.8292683 L25.1362771,15.8292683 L25.1362771,15.8292683 L25.1362771,23.6439024 C25.1421744,23.6617253 25.1421744,23.6809576 25.1362771,23.6987805 C25.118351,23.7046438 25.0990072,23.7046438 25.0810811,23.6987805 L25.0810811,23.6987805 L21.9017891,23.6987805 C21.5408598,23.7017206 21.1859413,23.6068621 20.8751427,23.4243902 C20.5662799,23.2369284 20.3084958,22.9768604 20.1244766,22.6670732 L20.1244766,22.6670732 L19.2303007,21.1085366 L18.3361249,22.6670732 C18.1567402,22.9803764 17.8979252,23.2414845 17.5854587,23.4243902 C17.2746601,23.6068621 16.9197417,23.7017206 16.5588123,23.6987805 L16.5588123,23.6987805 L13.3684812,23.6987805 L13.3353635,23.6768293 L13.2801675,23.6768293 L13.2801675,23.6768293 L13.2801675,15.8292683 L14.8587743,15.8292683 Z M48.881614,15.7634146 C49.4902339,15.7449718 50.0794947,15.9772535 50.5100538,16.4053321 C50.9406129,16.8334107 51.1742406,17.4192767 51.1556909,18.0243902 L51.1556909,18.0243902 L51.1556909,18.8146341 C51.1621535,19.255023 51.0352226,19.6871611 50.791397,20.054878 C50.5561578,20.4183771 50.218216,20.7047363 49.8199467,20.8780488 L49.8199467,20.8780488 L49.8199467,20.9439024 L51.0894557,23.5890244 C51.1012874,23.6093996 51.1012874,23.6345029 51.0894557,23.654878 L51.0894557,23.654878 L49.4004568,23.654878 L48.1751047,21.097561 L41.3970308,21.097561 L41.3970308,23.6987805 L41.3970308,23.6987805 L39.9398553,23.6987805 L39.8294633,23.5670732 L39.8294633,15.7634146 L39.8294633,15.7634146 Z M35.9767796,15.7853659 C36.5853995,15.766923 37.1746603,15.9992048 37.6052194,16.4272833 C38.0357785,16.8553619 38.2694062,17.4412279 38.2508565,18.0463415 L38.2508565,18.0463415 L38.2508565,21.4378049 C38.2694062,22.0429184 38.0357785,22.6287844 37.6052194,23.056863 C37.1746603,23.4849416 36.5853995,23.7172233 35.9767796,23.6987805 L35.9767796,23.6987805 L29.1435097,23.6987805 C28.5381796,23.7082521 27.9554939,23.4701719 27.5317853,23.0402439 C27.0953088,22.6208429 26.8517575,22.0412753 26.8583936,21.4378049 L26.8583936,21.4378049 L26.8583936,18.0463415 C26.8517575,17.442871 27.0953088,16.8633034 27.5317853,16.4439024 C27.9554939,16.0139745 28.5381796,15.7758942 29.1435097,15.7853659 L29.1435097,15.7853659 Z M54.555767,15.7634146 L54.56019,15.7908537 L54.56019,15.7908537 L54.555767,15.8182927 L54.555767,19.1109756 L60.5831747,19.1109756 C60.7946987,19.1104306 61.0016119,19.0494762 61.179292,18.9353659 C61.3665821,18.8238357 61.5164061,18.6595969 61.6098211,18.4634146 L61.6098211,18.4634146 L62.8572516,16.004878 C62.8789035,15.9987757 62.901835,15.9987757 62.9234869,16.004878 L62.9234869,16.004878 L64.3806624,16.004878 L64.3806624,16.0707317 L63.0007613,18.9573171 C62.841226,19.287902 62.6158981,19.5828745 62.3384088,19.8243902 C62.6136418,20.0722632 62.8384896,20.3703332 63.0007613,20.702439 L63.0007613,20.702439 L64.3806624,23.5890244 C64.3924941,23.6093996 64.3924941,23.6345029 64.3806624,23.654878 L64.3806624,23.654878 L62.6916635,23.654878 L61.499429,21.1634146 C61.401931,20.96998 61.2530423,20.8067664 61.0688999,20.6914634 C60.8932264,20.5730748 60.6849681,20.5117241 60.4727826,20.5158537 L60.4727826,20.5158537 L54.445375,20.5158537 L54.445375,23.6439024 C54.4512722,23.6617253 54.4512722,23.6809576 54.445375,23.6987805 L54.445375,23.6987805 L52.9881995,23.6987805 L52.9881995,23.6109756 L52.9330034,23.6109756 L52.9330034,23.6109756 L52.9330034,15.8182927 C52.9271062,15.8004698 52.9271062,15.7812375 52.9330034,15.7634146 L52.9330034,15.7634146 L54.555767,15.7634146 Z M77.0426342,15.8402439 L77.0426342,17.1134146 L77.0426342,17.1134146 L68.443091,17.1134146 C68.2640366,17.1103696 68.0918827,17.1820189 67.968405,17.3109756 C67.8381171,17.4378833 67.7662313,17.6125917 67.7696993,17.7939024 L67.7696993,17.7939024 L67.7696993,18.3536585 C67.7662313,18.5349693 67.8381171,18.7096777 67.968405,18.8365854 C68.0918827,18.9655421 68.2640366,19.0371914 68.443091,19.0341463 L68.443091,19.0341463 L75.2874001,19.0341463 C75.89602,19.0157035 76.4852808,19.2479852 76.9158399,19.6760638 C77.346399,20.1041424 77.5800267,20.6900084 77.561477,21.295122 L77.561477,21.295122 L77.561477,21.404878 C77.5614916,22.6553683 76.5451216,23.6707883 75.2874001,23.6768293 L75.2874001,23.6768293 L66.6878569,23.6768293 L66.6834339,23.6493902 L66.6834339,23.6493902 L66.6878569,23.6219512 L66.6878569,22.3817073 C66.6819596,22.3638845 66.6819596,22.3446521 66.6878569,22.3268293 L66.6878569,22.3268293 L75.2874001,22.3268293 C75.465943,22.3272767 75.6371061,22.2560399 75.762086,22.1292683 C75.89179,22.006502 75.9638544,21.8353399 75.9607918,21.6573171 L75.9607918,21.6573171 L75.9607918,21.0865854 C75.9642597,20.9052746 75.892374,20.7305662 75.762086,20.6036585 C75.6386084,20.4747018 75.4664545,20.4030525 75.2874001,20.4060976 L75.2874001,20.4060976 L68.443091,20.4060976 L68.443091,20.4170732 C67.846145,20.4348865 67.2674039,20.2115033 66.8389153,19.7978916 C66.4104266,19.3842799 66.1687453,18.8157253 66.1690141,18.2219512 L66.1690141,18.2219512 L66.1690141,18.1012195 C66.1504644,17.496106 66.3840921,16.91024 66.8146512,16.4821614 C67.2452103,16.0540828 67.8344711,15.8218011 68.443091,15.8402439 L68.443091,15.8402439 L77.0426342,15.8402439 Z M135.616673,15.2804878 L127.734678,15.2804878 C127.442033,15.2804878 127.204796,15.5163573 127.204796,15.8073171 L127.204796,15.8073171 L127.204796,22.8865854 C127.204796,23.2487805 127.425581,23.4243902 127.85611,23.4243902 L127.85611,23.4243902 L128.40807,23.4243902 C128.838599,23.4243902 129.059383,23.2378049 129.059383,22.8865854 L129.059383,22.8865854 L129.048344,22.8536585 L129.048344,20.504878 L135.605634,20.504878 C136.544271,20.5302696 137.48063,20.4004538 138.376475,20.1207317 C139.392082,19.747561 139.910925,19.1658537 139.910925,18.3536585 L139.910925,18.3536585 L139.910925,17.0804878 C139.910925,16.4439024 139.403121,15.95 138.299201,15.6207317 C137.426086,15.3798859 136.52264,15.2652954 135.616673,15.2804878 L135.616673,15.2804878 Z M121.43129,17.0036585 L118.329273,17.0036585 C115.72402,17.0036585 114.421393,17.6731707 114.421393,19.045122 L114.421393,19.045122 L114.421393,21.3719512 C114.421393,22.7439024 115.72402,23.4134146 118.307195,23.4134146 L118.307195,23.4134146 L121.43129,23.4134146 C124.036544,23.4134146 125.33917,22.7439024 125.33917,21.3719512 L125.33917,21.3719512 L125.33917,19.045122 C125.33917,17.6731707 124.036544,17.0036585 121.43129,17.0036585 L121.43129,17.0036585 Z M154.946327,17.0036585 L151.822231,17.0036585 C149.216978,17.0036585 147.914351,17.6731707 147.914351,19.045122 L147.914351,19.045122 L147.914351,21.3719512 C147.914351,22.7439024 149.216978,23.4134146 151.822231,23.4134146 L151.822231,23.4134146 L154.946327,23.4134146 C157.55158,23.4134146 158.854206,22.7439024 158.854206,21.3719512 L158.854206,21.3719512 L158.854206,19.045122 C158.854206,17.6731707 157.55158,17.0036585 154.946327,17.0036585 L154.946327,17.0036585 Z M104.419871,15.2695122 C103.480593,15.2472585 102.544151,15.380795 101.649029,15.6646341 C100.699657,15.9939024 100.059383,16.5536585 100.059383,17.2890244 L100.059383,17.2890244 L100.070423,17.2780488 L100.070423,21.3609756 C100.070423,22.1182927 100.589265,22.6780488 101.626951,23.0182927 C102.527406,23.2943661 103.466787,23.4240839 104.408831,23.402439 L104.408831,23.402439 L108.658927,23.402439 C109.549675,23.4287084 110.437382,23.2871957 111.275219,22.9853659 C112.191473,22.6231707 112.65512,22.0743902 112.65512,21.3390244 L112.65512,21.3390244 L112.65512,19.7365854 C112.65512,19.3963415 112.434336,19.2317073 112.003807,19.2317073 L112.003807,19.2317073 L108.184241,19.2317073 C108.014421,19.2345933 107.852713,19.3044458 107.734703,19.4258925 C107.616694,19.5473393 107.552053,19.7104281 107.555006,19.8792683 C107.554804,20.2285063 107.833181,20.5149907 108.184241,20.5268293 L108.184241,20.5268293 L110.712219,20.5268293 L110.712219,21.3939024 C110.712219,21.6463415 110.381043,21.8987805 109.807004,22.052439 C109.406755,22.1530786 108.994287,22.1974128 108.581652,22.1841463 L108.581652,22.1841463 L104.386753,22.1841463 C102.719833,22.1841463 101.880853,21.9097561 101.880853,21.3609756 L101.880853,21.3609756 L101.880853,17.2780488 C101.880853,16.7292683 102.874381,16.4768293 104.872478,16.4768293 L104.872478,16.4768293 L106.09783,16.4768293 C106.539399,16.4768293 106.771222,16.2792683 106.771222,15.8731707 C106.771222,15.4670732 106.550438,15.2695122 106.09783,15.2695122 L106.09783,15.2695122 Z M146.103921,17.0036585 C144.986643,16.8795647 143.85559,17.0032637 142.792158,17.3658537 C142.063152,17.5826153 141.544721,18.224736 141.489532,18.9792683 L141.489532,18.9792683 L141.489532,22.8536585 C141.489532,23.1939024 141.699277,23.3585366 142.107727,23.3585366 L142.107727,23.3585366 L142.637609,23.3585366 C143.04606,23.3585366 143.255805,23.1939024 143.255805,22.8536585 L143.255805,22.8536585 L143.255805,18.9792683 C143.255805,18.4304878 143.929197,18.2 145.287019,18.2 L145.287019,18.2 L145.364294,18.1890244 L146.11496,18.1890244 C146.556528,18.1890244 146.766273,17.9914634 146.766273,17.5963415 C146.766273,17.2012195 146.545489,17.0036585 146.103921,17.0036585 Z M36.0209364,17.1682927 L29.1876665,17.1682927 C29.0053052,17.1648447 28.8295845,17.2363163 28.7019414,17.3658537 C28.5677733,17.4761588 28.4809264,17.6331525 28.4590788,17.804878 L28.4590788,17.804878 L28.4590788,21.7012195 C28.4556109,21.8825303 28.5274966,22.0572386 28.6577845,22.1841463 C28.7868593,22.3115509 28.9616306,22.3826363 29.1435097,22.3817073 L29.1435097,22.3817073 L36.0209364,22.3817073 C36.2032978,22.3851553 36.3790185,22.3136837 36.5066616,22.1841463 C36.6348044,22.0558152 36.7063017,21.8820508 36.7053673,21.7012195 L36.7053673,21.7012195 L36.7053673,17.8487805 C36.7083833,17.6674013 36.6372428,17.4925688 36.5082275,17.3642968 C36.3792122,17.2360248 36.2033667,17.1652941 36.0209364,17.1682927 L36.0209364,17.1682927 Z M121.43129,18.2 C122.943662,18.2 123.639132,18.452439 123.639132,18.9573171 L123.639132,18.9573171 L123.639132,21.4707317 C123.639132,21.9756098 122.888466,22.2280488 121.43129,22.2280488 L121.43129,22.2280488 L118.307195,22.2280488 C116.794823,22.2280488 116.099353,21.9756098 116.099353,21.4707317 L116.099353,21.4707317 L116.099353,18.9573171 C116.099353,18.452439 116.850019,18.2 118.307195,18.2 L118.307195,18.2 Z M154.968405,18.2 C156.480777,18.2 157.176247,18.452439 157.176247,18.9573171 L157.176247,18.9573171 L157.176247,21.4707317 C157.176247,21.9756098 156.425581,22.2280488 154.968405,22.2280488 L154.968405,22.2280488 L151.844309,22.2280488 C150.331938,22.2280488 149.636467,21.9756098 149.636467,21.4707317 L149.636467,21.4707317 L149.636467,18.9573171 C149.636467,18.452439 150.387134,18.2 151.844309,18.2 L151.844309,18.2 Z M48.8926532,16.9817073 L41.3639132,16.9817073 L41.4632661,17.1243902 L41.4632661,19.5719512 L48.8926532,19.5719512 C49.0717076,19.5749962 49.2438615,19.503347 49.3673392,19.3743902 C49.4976271,19.2474825 49.5695128,19.0727742 49.5660449,18.8914634 L49.5660449,18.8914634 L49.5660449,17.6512195 C49.5660449,17.2814581 49.2645572,16.9817073 48.8926532,16.9817073 L48.8926532,16.9817073 Z M135.616673,16.5207317 C137.228397,16.5207317 138.056338,16.7073171 138.056338,17.3658537 L138.056338,17.3658537 L138.056338,18.4853659 C138.056338,19.1439024 137.228397,19.3304878 135.616673,19.3304878 L135.616673,19.3304878 L129.059383,19.3304878 L129.059383,16.5207317 Z" id="形状结合" fill="#030000"></path>
        </g>
    </g>
</svg>