<?xml version="1.0" encoding="UTF-8"?>
<svg width="541px" height="113px" viewBox="0 0 541 113" version="1.1" xmlns="http://www.w3.org/2000/svg" xmlns:xlink="http://www.w3.org/1999/xlink">
    <title>底板灰色块</title>
    <g id="底板灰色块" stroke="none" stroke-width="1" fill="none" fill-rule="evenodd">
        <rect id="矩形" fill="#FFFFFF" x="0" y="0" width="541" height="113"></rect>
        <polygon id="Fill-4备份-2" fill="#E5E5E7" opacity="0.5" points="280.20477 0 277.523439 0.00569479909 269.496513 0.0797271872 261.511305 0.296129552 253.584881 0.708053353 248.408054 1.11618062 240.813478 1.98368835 234.022922 3.11315683 227.816419 4.51597568 221.697144 6.30034606 215.263087 8.59345182 208.377717 11.4674271 203.312771 13.8193791 197.561373 16.8034538 191.180412 20.5468351 186.779161 23.3315919 177.673255 29.4516026 168.736117 35.8164897 155.902137 45.3837522 149.359993 50.3875823 145.091481 53.6772779 128.260156 66.6310476 125.468842 68.7495128 114.206872 77.0753091 104.416412 83.9166611 102.322925 85.3213782 94.2922066 90.4637817 86.9403537 94.7595585 80.0094736 98.3966369 76.6322102 100.012062 69.7525295 102.975255 62.9392183 105.482865 56.2131357 107.540586 49.3846543 109.212959 42.1105487 110.583507 34.3396193 111.640841 30.0938626 112.066053 21.4070331 112.639329 11.2695542 112.937357 -6.30745456e-14 113 541 113 541 0"></polygon>
    </g>
</svg>