<?xml version="1.0" encoding="UTF-8"?>
<svg width="266px" height="35px" viewBox="0 0 266 35" version="1.1" xmlns="http://www.w3.org/2000/svg" xmlns:xlink="http://www.w3.org/1999/xlink">
    <title>Zero40-单行-竖屏</title>
    <g id="Zero40-单行-竖屏" stroke="none" stroke-width="1" fill="none" fill-rule="evenodd">
        <rect id="矩形" fill="#FFFFFF" x="0" y="0" width="266" height="35"></rect>
        <g id="市场名备份-6" transform="translate(192.000000, 0.000000)" fill="#FF0000" fill-rule="nonzero">
            <circle id="椭圆形" cx="5" cy="5" r="5"></circle>
        </g>
        <path d="M174.399879,0.153373974 C182.132864,0.153373974 186,4.78156804 186,14.038503 C186,18.5777529 185.010583,22.0394664 183.032484,24.4236434 C181.053835,26.8083672 178.176667,28 174.399879,28 C166.666159,28 162.799758,23.3716237 162.799758,14.114871 C162.799758,9.55046884 163.78844,6.08219392 165.767273,3.7107753 C167.745189,1.33917442 170.623091,0.153373974 174.399879,0.153373974 Z M29.8290403,7.29050371e-05 L29.8290403,6.34973718 L6.85980884,22.4152736 L29.8676033,22.4152736 L29.8676033,27.3113937 L0,27.3113937 L0,20.9234543 L22.815163,4.89619299 L0,4.89619299 L0,7.29050371e-05 L29.8290403,7.29050371e-05 Z M61.0839204,0 L61.0839204,4.89612009 L40.3884375,4.89612009 C39.6561076,4.89612009 39.0396503,5.50815788 39.0396503,6.23502111 L39.0396503,11.2842418 L57.4226379,11.2842418 L57.4226379,16.1803619 L39.0396503,16.1803619 L39.0396503,21.0764819 C39.0396503,21.8033452 39.6561076,22.4152007 40.3884375,22.4152007 L61.0839204,22.4152007 L61.0839204,27.311503 L39.0396503,27.311503 C35.9950087,27.311503 33.5284451,24.8250767 33.5284451,21.8416203 L33.5284451,5.46988273 C33.5284451,2.48642632 35.9950087,0 39.0396503,0 L61.0839204,0 Z M88.9086389,3.64525185e-05 C91.9532805,3.64525185e-05 94.4196605,2.48628051 94.4196605,5.46991919 L94.4196605,12.8141904 C94.4196605,15.7978291 91.9532805,18.2840732 88.9086389,18.2840732 L85.9835427,18.2840732 L94.689418,27.3115395 L87.9452982,27.3115395 L79.4068965,18.2840732 L70.3328363,18.2840732 L70.3328363,27.3115395 L64.8218147,27.3115395 L64.8218147,5.46991919 C64.8218147,2.48628051 67.2881947,3.64525185e-05 70.3328363,3.64525185e-05 L88.9086389,3.64525185e-05 Z M122.976893,9.11312964e-05 C125.982971,9.11312964e-05 128.449535,2.48633519 128.449535,5.46997386 L128.449535,21.8415292 C128.449535,24.8251679 125.982971,27.3114119 122.976893,27.3114119 L104.09277,27.3114119 C101.048128,27.3114119 98.5815644,24.8251679 98.5815644,21.8415292 L98.5815644,5.46997386 C98.5815644,2.48633519 101.048128,9.11312964e-05 104.09277,9.11312964e-05 L122.976893,9.11312964e-05 Z M155.200108,0.88000026 L155.200108,17.9016863 L159.824548,17.9016863 L159.285033,20.8470498 L155.200108,20.8470498 L155.200108,27.3115395 L151.808583,27.3115395 L151.808583,20.8470498 L135.506897,20.8470498 L135.506897,18.16943 L151.692894,0.88000026 L155.200108,0.88000026 Z M174.399879,3.40457414 C169.209848,3.40457414 166.615109,6.97509837 166.615109,14.114871 C166.615109,21.2045214 169.209848,24.7486176 174.399879,24.7486176 C179.589175,24.7486176 182.184649,21.1788224 182.184649,14.038503 C182.184649,6.94939935 179.589175,3.40457414 174.399879,3.40457414 Z M121.550796,4.89621122 L105.480303,4.89621122 C104.709227,4.89621122 104.09277,5.54652415 104.09277,6.27320512 L104.09277,21.0765731 C104.09277,21.803254 104.709227,22.4152918 105.44174,22.4152918 L121.550796,22.4152918 C122.283309,22.4152918 122.93833,21.803254 122.93833,21.0765731 L122.93833,6.27320512 C122.93833,5.54652415 122.283309,4.89621122 121.550796,4.89621122 Z M151.808583,5.01116423 L139.746073,17.9016863 L151.808583,17.9016863 L151.808583,5.01116423 Z M87.5598517,4.89615654 L71.7203702,4.89615654 C70.9494772,4.89615654 70.3328363,5.54646948 70.3328363,6.27315044 L70.3328363,13.3879531 L87.5598517,13.3879531 C88.291998,13.3879531 88.9086389,12.7759153 88.9086389,12.0492343 L88.9086389,6.27315044 C88.9086389,5.54646948 88.291998,4.89615654 87.5598517,4.89615654 Z" id="形状结合" fill="#000000"></path>
    </g>
</svg>