<?xml version="1.0" encoding="UTF-8"?>
<svg width="79px" height="49px" viewBox="0 0 79 49" version="1.1" xmlns="http://www.w3.org/2000/svg" xmlns:xlink="http://www.w3.org/1999/xlink">
    <title>Logo</title>
    <g id="Logo" stroke="none" stroke-width="1" fill="none" fill-rule="evenodd">
        <g transform="translate(0, -0)">
            <rect id="背景" fill="#FFFFFF" x="0" y="0" width="79" height="49"></rect>
            <polygon id="直线备份" fill-opacity="0.1" fill="#000000" fill-rule="nonzero" points="79 0 79 49 77 49 77 0"></polygon>
            <path d="M29,49 L14.7982427,49 L14.7982427,14.5168601 L0,14.5168601 L0,0 L29,0 L29,49 Z M46,14 L46,14 C42.1343284,14 39,10.8663922 39,7 L39,7 C39,3.13432836 42.1343284,0 46,0 L46,0 C49.8656716,0 53,3.13432836 53,7 L53,7 C53,10.8663922 49.8656716,14 46,14" id="形状结合" fill="#0264F9"></path>
        </g>
    </g>
</svg>