<?xml version="1.0" encoding="UTF-8"?>
<svg width="266px" height="35px" viewBox="0 0 266 35" version="1.1" xmlns="http://www.w3.org/2000/svg" xmlns:xlink="http://www.w3.org/1999/xlink">
    <title>ZeroFlip-单行-竖屏</title>
    <g id="ZeroFlip-单行-竖屏" stroke="none" stroke-width="1" fill="none" fill-rule="evenodd">
        <g id="编组-11备份-4">
            <rect id="矩形备份" fill="#FFFFFF" x="0" y="0" width="266" height="35"></rect>
            <g id="市场名备份-4" transform="translate(205.000000, 0.000000)" fill="#FF0000" fill-rule="nonzero">
                <circle id="椭圆形" cx="5" cy="5" r="5"></circle>
            </g>
            <path d="M189.132648,7.29166667 C191.133345,7.29166667 192.871605,7.71741545 194.347786,8.56855006 C195.823253,9.42004763 196.967504,10.6205285 197.780717,12.1701743 C198.593215,13.7201829 199,15.5371466 199,17.6203394 C199,19.7038952 198.568561,21.5459029 197.705684,23.1467256 C196.842806,24.7475483 195.647998,25.9926729 194.122509,26.8817365 C192.596663,27.7709817 190.808202,28.2157857 188.757305,28.2157857 C185.155551,28.2157857 182.429001,26.945617 180.57837,24.4043722 L180.57837,35 L177.051471,35 L177.051471,7.90143475 L180.540854,7.90143475 L180.540854,11.5221142 C181.41588,10.201313 182.610152,9.16579612 184.12385,8.41592656 C185.636833,7.66678292 187.306492,7.29166667 189.132648,7.29166667 Z M61.4558824,0 L61.4558824,4.96725966 L40.5756453,4.96725966 C39.8367776,4.96725966 39.214817,5.58819023 39.214817,6.32561463 L39.214817,11.4481994 L57.7619146,11.4481994 L57.7619146,16.415459 L39.214817,16.415459 L39.214817,21.3827187 C39.214817,22.1201431 39.8367776,22.7408888 40.5756453,22.7408888 L61.4558824,22.7408888 L61.4558824,27.7083333 L39.214817,27.7083333 C36.1429951,27.7083333 33.6544118,25.1857798 33.6544118,22.1589744 L33.6544118,5.54935896 C33.6544118,2.52255356 36.1429951,0 39.214817,0 L61.4558824,0 Z M87.9829686,0 C90.9661521,0 93.3827466,2.52236865 93.3827466,5.54935896 L93.3827466,13.0003409 C93.3827466,16.0273312 90.9661521,18.5496999 87.9829686,18.5496999 L85.1169174,18.5496999 L93.6470588,27.7083333 L87.0390736,27.7083333 L78.6730252,18.5496999 L69.7821309,18.5496999 L69.7821309,27.7083333 L64.3823529,27.7083333 L64.3823529,5.54935896 C64.3823529,2.52236865 66.7989475,0 69.7821309,0 L87.9829686,0 Z M121.939363,0 C124.884726,0 127.301471,2.52238548 127.301471,5.54939599 L127.301471,22.1589373 C127.301471,25.1859479 124.884726,27.7083333 121.939363,27.7083333 L103.436656,27.7083333 C100.453509,27.7083333 98.0367647,25.1859479 98.0367647,22.1589373 L98.0367647,5.54939599 C98.0367647,2.52238548 100.453509,0 103.436656,0 L121.939363,0 Z M155.102941,0 L155.102941,3.37618512 L138.366439,3.37618512 L138.366439,12.1465794 L154.231913,12.1465794 L154.231913,15.5229493 L138.366439,15.5229493 L138.366439,27.7083333 L134.617647,27.7083333 L134.617647,0 L155.102941,0 Z M162.419118,0 L162.419118,27.7083333 L159.492647,27.7083333 L159.492647,0 L162.419118,0 Z M171.066642,7.64506085 L171.066642,27.7083333 L166.940293,27.7083333 L166.940293,7.64506085 L171.066642,7.64506085 Z M29.2269213,0 L29.2269213,6.44196653 L6.72133904,22.7410405 L29.2647059,22.7410405 L29.2647059,27.7083333 L0,27.7083333 L0,21.2275353 L22.3546238,4.96729281 L0,4.96729281 L0,0 L29.2269213,0 Z M188.044493,10.226357 C186.643345,10.226357 185.374397,10.5377743 184.236221,11.1600644 C183.097865,11.7830804 182.197472,12.6084451 181.53486,13.6374287 C180.871892,14.6665938 180.540854,15.8164422 180.540854,17.0867923 L180.540854,18.3063285 C180.540854,19.6534441 180.846881,20.853925 181.459827,21.9081342 C182.072596,22.9627063 182.923146,23.7886154 184.011301,24.385317 C185.099277,24.982563 186.356255,25.2810953 187.781879,25.2810953 C190.232951,25.2810953 192.096444,24.6332168 193.372181,23.3372781 C194.647918,22.0413395 195.285697,20.1488807 195.285697,17.6584499 C195.285697,15.3210056 194.647918,13.4980531 193.372181,12.1892295 C192.096444,10.8807688 190.32031,10.226357 188.044493,10.226357 Z M120.54207,4.96729281 L104.796165,4.96729281 C104.040662,4.96729281 103.436656,5.62705906 103.436656,6.36430346 L103.436656,21.3828614 C103.436656,22.1201058 104.040662,22.7410405 104.758381,22.7410405 L120.54207,22.7410405 C121.259789,22.7410405 121.901579,22.1201058 121.901579,21.3828614 L121.901579,6.36430346 C121.901579,5.62705906 121.259789,4.96729281 120.54207,4.96729281 Z M86.6614076,4.96725966 L71.1416565,4.96725966 C70.3863245,4.96725966 69.7821309,5.62702151 69.7821309,6.36426099 L69.7821309,13.5824402 L86.6614076,13.5824402 C87.378775,13.5824402 87.9829686,12.9615096 87.9829686,12.2242701 L87.9829686,6.36426099 C87.9829686,5.62702151 87.378775,4.96725966 86.6614076,4.96725966 Z M171.198529,0 L171.198529,3.91944954 L166.808824,3.91944954 L166.808824,0 L171.198529,0 Z" id="形状结合备份-4" fill="#000000"></path>
        </g>
    </g>
</svg>