<?xml version="1.0" encoding="UTF-8"?>
<svg width="266px" height="35px" viewBox="0 0 266 35" version="1.1" xmlns="http://www.w3.org/2000/svg" xmlns:xlink="http://www.w3.org/1999/xlink">
    <title>Zero40 5G-单行-竖屏</title>
    <g id="Zero40-5G-单行-竖屏" stroke="none" stroke-width="1" fill="none" fill-rule="evenodd">
        <rect id="矩形" fill="#FFFFFF" x="0" y="0" width="266" height="35"></rect>
        <g id="市场名备份-3" transform="translate(246.000000, 0.000000)" fill="#FF0000" fill-rule="nonzero">
            <circle id="椭圆形" cx="5" cy="5" r="5"></circle>
        </g>
        <path d="M174.240055,0.160441484 C181.965954,0.160441484 185.829546,4.78746091 185.829546,14.0420464 C185.829546,18.5801443 184.841036,22.0409792 182.86475,24.424551 C180.887913,26.8086696 178.013382,28 174.240055,28 C166.513421,28 162.650563,23.3727984 162.650563,14.1183951 C162.650563,9.55515135 163.638339,6.08775669 165.615359,3.71693994 C167.591462,1.34594097 170.466727,0.160441484 174.240055,0.160441484 Z M234.560029,0 C236.460728,0 238,1.52879506 238,3.41473414 L238,3.41473414 L238,27.3251618 L196.291406,27.3251618 C194.392542,27.3251618 192.851435,25.7945446 192.851435,23.9086055 L192.851435,23.9086055 L192.851435,3.41473414 C192.851435,1.52879506 194.392542,0 196.291406,0 L196.291406,0 Z M29.8017074,0.00719754529 L29.8017074,6.35525027 L6.85352307,22.4167092 L29.840235,22.4167092 L29.840235,27.3115867 L0,27.3115867 L0,20.9252685 L22.794257,4.90207499 L0,4.90207499 L0,0.00719754529 L29.8017074,0.00719754529 Z M61.027948,0.00710643711 L61.027948,4.90198388 L40.3514288,4.90198388 C39.6197699,4.90198388 39.0038775,5.51386634 39.0038775,6.24054509 L39.0038775,11.2884843 L57.3700204,11.2884843 L57.3700204,16.1833617 L39.0038775,16.1833617 L39.0038775,21.0782391 C39.0038775,21.8049179 39.6197699,22.4166181 40.3514288,22.4166181 L61.027948,22.4166181 L61.027948,27.3116778 L39.0038775,27.3116778 C35.9620258,27.3116778 33.4977223,24.8258825 33.4977223,21.8431833 L33.4977223,5.47560091 C33.4977223,2.4929017 35.9620258,0.00710643711 39.0038775,0.00710643711 L61.027948,0.00710643711 Z M88.8271702,0.00714288038 C91.8690219,0.00714288038 94.333142,2.49275592 94.333142,5.47563735 L94.333142,12.8180446 C94.333142,15.800926 91.8690219,18.2865391 88.8271702,18.2865391 L85.9047543,18.2865391 L94.6026522,27.3117142 L87.8647122,27.3117142 L79.3341345,18.2865391 L70.268389,18.2865391 L70.268389,27.3117142 L64.7624172,27.3117142 L64.7624172,5.47563735 C64.7624172,2.49275592 67.2265373,0.00714288038 70.268389,0.00714288038 L88.8271702,0.00714288038 Z M122.864207,0.00721576692 C125.867531,0.00721576692 128.331834,2.49282881 128.331834,5.47571024 L128.331834,21.8431104 C128.331834,24.8259919 125.867531,27.3116049 122.864207,27.3116049 L103.997387,27.3116049 C100.955536,27.3116049 98.4912322,24.8259919 98.4912322,21.8431104 L98.4912322,5.47571024 C98.4912322,2.49282881 100.955536,0.00721576692 103.997387,0.00721576692 L122.864207,0.00721576692 Z M155.057877,0.886901574 L155.057877,17.9042674 L159.678079,17.9042674 L159.139059,20.8488834 L155.057877,20.8488834 L155.057877,27.3117325 L151.66946,27.3117325 L151.66946,20.8488834 L135.382711,20.8488834 L135.382711,18.1719432 L151.553877,0.886901574 L155.057877,0.886901574 Z M234.560029,1.70736707 L196.291406,1.70736707 C195.342525,1.70736707 194.570503,2.47322233 194.570503,3.41473414 L194.570503,3.41473414 L194.570503,23.9086055 C194.570503,24.8510284 195.342525,25.6177947 196.291406,25.6177947 L196.291406,25.6177947 L236.280932,25.6177947 L236.280932,3.41473414 C236.280932,2.47322233 235.508911,1.70736707 234.560029,1.70736707 L234.560029,1.70736707 Z M174.240055,3.41081649 C169.05478,3.41081649 166.462418,6.98043452 166.462418,14.1183951 C166.462418,21.2062461 169.05478,24.7494428 174.240055,24.7494428 C179.424595,24.7494428 182.017691,21.1805536 182.017691,14.0420464 C182.017691,6.95474202 179.424595,3.41081649 174.240055,3.41081649 Z M121.439416,4.90209321 L105.38365,4.90209321 C104.61328,4.90209321 103.997387,5.5522411 103.997387,6.27873763 L103.997387,21.0783485 C103.997387,21.804845 104.61328,22.4167275 105.345122,22.4167275 L121.439416,22.4167275 C122.171259,22.4167275 122.825679,21.804845 122.825679,21.0783485 L122.825679,6.27873763 C122.825679,5.5522411 122.171259,4.90209321 121.439416,4.90209321 Z M230.550252,6.90197217 L230.550252,9.30467678 L219.768741,9.30467678 C219.387867,9.30467678 219.083132,9.60733811 219.083132,9.98561923 L219.083132,17.3262043 C219.083132,17.7044855 219.387867,18.007329 219.768741,18.007329 L228.378759,18.007329 L228.378759,15.5477729 C228.378759,15.1882601 228.074023,14.8855987 227.712047,14.8855987 L222.892785,14.8855987 L222.892785,12.4828941 L228.397839,12.4828941 C229.90262,12.4828941 231.121746,13.6937217 231.121746,15.1694918 L231.121746,20.4100336 L219.083132,20.4100336 C217.578167,20.4100336 216.359041,19.1992061 216.359041,17.7044855 L216.359041,9.60733811 C216.359041,8.11279972 217.578167,6.90197217 219.083132,6.90197217 L230.550252,6.90197217 Z M213.99713,6.90193572 L213.99713,9.30464033 L202.453688,9.30464033 L202.453688,11.8019152 C202.453688,12.1803786 202.758423,12.4830399 203.13948,12.4830399 L211.768395,12.4830399 C213.27336,12.4830399 214.492486,13.6938674 214.492486,15.1884058 L214.492486,17.7046312 C214.492486,19.1991696 213.27336,20.4099972 211.768395,20.4099972 L199.920218,20.4099972 L199.920218,18.0072926 L211.082786,18.0072926 C211.44458,18.0072926 211.749499,17.7046312 211.749499,17.3261679 L211.749499,15.5668692 C211.749499,15.1884058 211.44458,14.8857445 211.082786,14.8857445 L202.453688,14.8857445 C200.948907,14.8857445 199.729781,13.6749169 199.729781,12.1803786 L199.729781,6.90193572 L213.99713,6.90193572 Z M151.66946,5.01701705 L139.618003,17.9042674 L151.66946,17.9042674 L151.66946,5.01701705 Z M87.4796189,4.90202032 L71.6546514,4.90202032 C70.8844648,4.90202032 70.268389,5.55216821 70.268389,6.27866474 L70.268389,13.3916617 L87.4796189,13.3916617 C88.2110944,13.3916617 88.8271702,12.7797792 88.8271702,12.0532827 L88.8271702,6.27866474 C88.8271702,5.55216821 88.2110944,4.90202032 87.4796189,4.90202032 Z" id="形状结合备份" fill="#000000"></path>
    </g>
</svg>