<svg width="266" height="35" viewBox="0 0 266 35" fill="none" xmlns="http://www.w3.org/2000/svg">
<g id="&#229;&#141;&#149;&#232;&#161;&#140;-&#231;&#171;&#150;&#229;&#177;&#143;&#229;&#164;&#135;&#228;&#187;&#189; 3">
<rect width="266" height="35" fill="white"/>
<path id="PHANTOM V Fold2 5G" d="M4.96582 6.67188L9.49219 14.4502L14.0186 6.67188H18.252L11.8066 17.2334L18.4131 28H14.1357L9.49219 20.0752L4.84863 28H0.556641L7.17773 17.2334L0.717773 6.67188H4.96582ZM31.3566 6.67188L35.883 14.4502L40.4094 6.67188H44.6428L38.1975 17.2334L44.8039 28H40.5266L35.883 20.0752L31.2395 28H26.9475L33.5686 17.2334L27.1086 6.67188H31.3566ZM57.7475 6.67188L62.2738 14.4502L66.8002 6.67188H71.0336L64.5883 17.2334L71.1947 28H66.9174L62.2738 20.0752L57.6303 28H53.3383L59.9594 17.2334L53.4994 6.67188H57.7475Z" fill="black"/>
</g>
</svg>
